::General::
Complete name: The Amazing Spiderman 2012 720p BrRip x264 Dual Audio [English-Hindi] NimitMak SilverRG
Director: Marc Webb
Format: MPEG-4
File size: 964 MiB
Duration: 2h 16mn
Overall Bitrate: 989 Kbps
Language: Dual Audio [English-Hindi]
Sub Title: Embedded + English (.srt)
Encoded date: 2012-11-01
Writing application: MeGui
Writing library: x264 core 100 r1659 57b2e56
Encoder: NimitMak
Source: 1080P.BrRip.YIFY(Thanks)

::IMDB INFO::
IMDB Link:http://www.imdb.com/title/tt0948470/
IMDB Rating:7.4/10
Release Date:29 June 2012 (India)
Genre: Action | Adventure | Fantasy 
YouTube

::Video::
ID: 1
Format: AVC
Format/Info: Advanced Video Codec
Format profile: High@L4.0
Format settings, CABAC: Yes
Format settings, ReFrames: 11 frames
Codec ID: V_MPEG4/ISO/AVC
Nominal Bitrate: 827 Kbps/6156 Kbps (Max)
Width: 1280 pixels
Height: 536 pixels
Display aspect ratio: 2.40:1
Frame rate: 23.976 fps
Color space: YUV
Chroma subsampling: 4:2:0
Bit depth: 8 bits
Scan type: Progressive
Writing library: x264 core 100 r1659 57b2e56



::Audio #1::
ID: 2
Format: AAC
Format/Info: Advanced Audio Codec
Format profile: HE-AAC / LC
Codec ID: 40
Duration: 2h 16mn
Bit rate mode: Variable
Bit rate: 32.0 Kbps
Maximum bit rate : 39.6 Kbps
Channel(s): 2 channels
Channel positions: Front: L R
Sampling rate: 22.05 KHz / 11.025 KHz
Compression mode : Lossy
Stream size: 31.2 MiB (3%)
Title: English - NimitMak SilverRG
Language: English
Encoded date: UTC 2012-11-01 16:46:07

::Audio #2
ID: 3
Format: AC-3
Format/Info: Audio Coding 3
Mode extension: CM (complete main)
Codec ID: ac-3
Duration: 2h 16mn
Bit rate mode: Constant
Bit rate: 128 Kbps
Channel(s): 2 channels
Channel positions: Front: L R
Sampling rate: 48.0 KHz
Bit depth: 16 bits
Compression mode: Lossy
Stream size: 125 MiB (13%)
Title: Hindi - SnowDon Thanks
Language: Hindi

::Text #1::
ID: 4
Format: Timed text
Codec ID: tx3g
Duration: 2h 10mn
Bit rate mode: Variable
Bit rate: 52 bps
Stream size: 49.9 KiB (0%)
Title: English - NimitMak SilverRG
Language: English

Screens : 
 
http://imgbox.com/aczTgBzt 
http://imgbox.com/adgjDnCD 
http://imgbox.com/adcRpHv4 
http://imgbox.com/adwgYuML 
http://imgbox.com/acpnsKci 
http://imgbox.com/adtAedSY 
http://imgbox.com/abm5KzSc 
http://imgbox.com/aclxOLqu 
http://imgbox.com/adcsuo0x
 
http://www.shotpix.com/images/92038146490944696165.jpg